<svg width="400" height="400" viewBox="0 0 400 400" fill="none" xmlns="http://www.w3.org/2000/svg">
<rect width="400" height="400" fill="white"/>
<g clip-path="url(#clip0)">
<path d="M220.208 200.017C220.208 189.602 207.165 179.734 187.171 173.614C191.783 153.232 189.732 137.018 180.696 131.826C178.615 130.61 176.18 130.033 173.519 130.033V137.177C174.993 137.177 176.18 137.466 177.174 138.012C181.531 140.511 183.42 150.027 181.949 162.268C181.594 165.28 181.018 168.454 180.312 171.689C174.032 170.151 167.173 168.965 159.966 168.196C155.639 162.268 151.152 156.887 146.636 152.175C157.08 142.466 166.885 137.147 173.552 137.147V130C164.741 130 153.203 136.279 141.539 147.174C129.875 136.346 118.341 130.129 109.526 130.129V137.273C116.16 137.273 125.998 142.562 136.446 152.208C131.96 156.916 127.473 162.268 123.212 168.196C115.968 168.965 109.112 170.151 102.83 171.722C102.094 168.517 101.547 165.409 101.163 162.43C99.6585 150.187 101.517 140.67 105.842 138.138C106.803 137.562 108.055 137.307 109.526 137.307V130.159C106.836 130.159 104.4 130.739 102.286 131.955C93.2831 137.147 91.2618 153.328 95.9108 173.644C75.9794 179.797 63 189.635 63 200.017C63 210.431 76.0424 220.299 96.0367 226.419C91.4241 246.801 93.4753 263.015 102.511 268.207C104.592 269.423 107.028 270 109.719 270C118.533 270 130.067 263.721 141.731 252.826C153.395 263.654 164.933 269.871 173.744 269.871C176.435 269.871 178.87 269.294 180.984 268.078C189.991 262.886 192.009 246.705 187.363 226.39C207.228 220.269 220.208 210.398 220.208 200.017ZM178.486 178.644C177.3 182.776 175.825 187.037 174.162 191.302C172.846 188.737 171.468 186.172 169.963 183.611C168.489 181.046 166.918 178.548 165.347 176.112C169.897 176.785 174.288 177.617 178.486 178.644ZM163.81 212.771C161.311 217.095 158.747 221.197 156.089 225.011C151.314 225.429 146.473 225.651 141.605 225.651C136.764 225.651 131.926 225.429 127.185 225.044C124.524 221.23 121.929 217.161 119.431 212.867C116.995 208.668 114.782 204.407 112.764 200.113C114.752 195.818 116.995 191.524 119.398 187.325C121.896 183.001 124.461 178.899 127.118 175.085C131.893 174.671 136.734 174.445 141.605 174.445C146.443 174.445 151.281 174.671 156.023 175.055C158.684 178.866 161.278 182.938 163.777 187.229C166.212 191.428 168.426 195.689 170.444 199.983C168.426 204.278 166.212 208.572 163.81 212.771ZM174.162 208.605C175.891 212.897 177.366 217.191 178.582 221.356C174.384 222.383 169.963 223.248 165.381 223.921C166.951 221.452 168.522 218.921 169.993 216.326C171.468 213.765 172.846 211.167 174.162 208.605ZM141.668 242.795C138.686 239.72 135.707 236.291 132.758 232.54C135.644 232.669 138.59 232.765 141.572 232.765C144.584 232.765 147.563 232.702 150.479 232.54C147.596 236.291 144.618 239.72 141.668 242.795ZM117.827 223.921C113.277 223.248 108.887 222.417 104.689 221.389C105.875 217.257 107.349 212.993 109.016 208.731C110.328 211.296 111.707 213.861 113.214 216.422C114.719 218.987 116.256 221.485 117.827 223.921ZM141.506 157.238C144.488 160.313 147.467 163.742 150.416 167.49C147.533 167.364 144.584 167.268 141.605 167.268C138.59 167.268 135.611 167.331 132.695 167.49C135.578 163.742 138.56 160.313 141.506 157.238ZM117.794 176.112C116.227 178.578 114.656 181.109 113.181 183.707C111.707 186.268 110.328 188.833 109.016 191.398C107.283 187.103 105.812 182.809 104.592 178.644C108.791 177.65 113.214 176.785 117.794 176.112ZM88.7964 216.23C77.4507 211.392 70.1143 205.047 70.1143 200.017C70.1143 194.987 77.4507 188.608 88.7964 183.803C91.5501 182.617 94.5621 181.56 97.6703 180.566C99.4994 186.845 101.902 193.383 104.881 200.08C101.935 206.746 99.5624 213.251 97.7664 219.501C94.5953 218.507 91.5832 217.416 88.7964 216.23ZM106.034 262.021C101.676 259.522 99.7877 250.006 101.259 237.765C101.613 234.753 102.19 231.579 102.896 228.345C109.175 229.882 116.034 231.068 123.241 231.837C127.569 237.765 132.056 243.147 136.572 247.858C126.128 257.567 116.323 262.886 109.656 262.886C108.214 262.856 106.995 262.568 106.034 262.021ZM182.045 237.603C183.549 249.843 181.69 259.363 177.366 261.892C176.405 262.471 175.152 262.727 173.681 262.727C167.047 262.727 157.209 257.438 146.761 247.795C151.248 243.084 155.735 237.732 159.996 231.804C167.24 231.035 174.095 229.849 180.378 228.278C181.114 231.516 181.69 234.624 182.045 237.603ZM194.381 216.23C191.624 217.416 188.612 218.473 185.504 219.467C183.678 213.185 181.273 206.65 178.294 199.954C181.243 193.287 183.612 186.782 185.408 180.533C188.579 181.527 191.591 182.617 194.411 183.803C205.757 188.641 213.093 194.987 213.093 200.017C213.063 205.047 205.724 211.425 194.381 216.23Z" fill="#254763"/>
<path d="M141.572 214.66C149.659 214.66 156.216 208.104 156.216 200.016C156.216 191.929 149.659 185.372 141.572 185.372C133.484 185.372 126.928 191.929 126.928 200.016C126.928 208.104 133.484 214.66 141.572 214.66Z" fill="#254763"/>
<path d="M268.715 199.294V259.231H259.636V199.294H268.715ZM258.871 183.051C258.871 180.972 259.381 179.45 260.402 178.485C261.422 177.519 262.699 177.037 264.232 177.037C265.69 177.037 266.947 177.528 268.003 178.511C269.061 179.496 269.59 181.01 269.59 183.051C269.59 185.092 269.061 186.614 268.003 187.617C266.947 188.62 265.69 189.121 264.232 189.121C262.699 189.121 261.422 188.62 260.402 187.617C259.381 186.614 258.871 185.092 258.871 183.051ZM329.964 259.231L328.761 251.192H328.271C324.078 257.28 317.807 260.324 309.456 260.324C301.619 260.324 295.521 257.645 291.165 252.285C286.809 246.926 284.631 239.307 284.631 229.428C284.631 219.547 286.818 211.872 291.192 206.402C295.568 200.934 301.656 198.201 309.456 198.201C317.588 198.201 323.823 201.153 328.162 207.058H328.871L328.49 202.74L328.271 198.529V174.137H337.347V259.231H329.964ZM310.606 252.723C316.805 252.723 321.298 251.037 324.086 247.666C326.876 244.293 328.271 238.851 328.271 231.34V229.428C328.271 220.932 326.858 214.87 324.033 211.243C321.207 207.616 316.695 205.802 310.497 205.802C305.173 205.802 301.098 207.871 298.273 212.009C295.447 216.146 294.035 221.989 294.035 229.538C294.035 237.192 295.439 242.97 298.246 246.871C301.054 250.772 305.174 252.723 310.606 252.723ZM228.521 253.435C228.521 250.992 229.077 249.142 230.188 247.885C231.299 246.626 232.894 245.996 234.973 245.996C237.087 245.996 238.737 246.626 239.924 247.885C241.108 249.142 241.7 250.992 241.7 253.435C241.7 255.803 241.098 257.626 239.894 258.903C238.692 260.18 237.052 260.818 234.973 260.818C233.113 260.818 231.572 260.244 230.351 259.095C229.131 257.946 228.521 256.06 228.521 253.435Z" fill="#254763"/>
</g>
<defs>
<clipPath id="clip0">
<rect width="274.347" height="140" fill="white" transform="translate(63 130)"/>
</clipPath>
</defs>
</svg>
